<?xml version="1.0" encoding="UTF-8" standalone="no"?>
<!-- Created with Inkscape (http://www.inkscape.org/) -->

<svg
   version="1.1"
   id="svg1"
   width="1622"
   height="1170"
   viewBox="0 0 1622 1170"
   xml:space="preserve"
   sodipodi:docname="ftmk_level4.svg"
   inkscape:version="1.4 (e7c3feb1, 2024-10-09)"
   xmlns:inkscape="http://www.inkscape.org/namespaces/inkscape"
   xmlns:sodipodi="http://sodipodi.sourceforge.net/DTD/sodipodi-0.dtd"
   xmlns:xlink="http://www.w3.org/1999/xlink"
   xmlns="http://www.w3.org/2000/svg"
   xmlns:svg="http://www.w3.org/2000/svg"><sodipodi:namedview
     id="namedview1"
     pagecolor="#ffffff"
     bordercolor="#000000"
     borderopacity="0.25"
     inkscape:showpageshadow="2"
     inkscape:pageopacity="0.0"
     inkscape:pagecheckerboard="0"
     inkscape:deskcolor="#d1d1d1"
     inkscape:zoom="1.4794949"
     inkscape:cx="688.07267"
     inkscape:cy="173.36998"
     inkscape:window-width="1104"
     inkscape:window-height="792"
     inkscape:window-x="142"
     inkscape:window-y="25"
     inkscape:window-maximized="0"
     inkscape:current-layer="layer1" /><defs
     id="defs1"><symbol
       id="AigaSymbols.svg:Stairs_Inv"><title
         id="title62">Stairs</title><rect
         x="0.5"
         y="0.5"
         width="71"
         height="71"
         ry="6"
         style="stroke:#ffffff"
         id="rect62" /><path
         d="m 9,56.5 h 12 v -10 h 10 v -10 h 10 v -10 h 10 v -10 h 12"
         style="fill:none;stroke:#ffffff;stroke-width:5"
         id="path63-3" /></symbol><symbol
       id="AigaSymbols.svg:Stairs_Inv-5"><title
         id="title62-2">Stairs</title><rect
         x="0.5"
         y="0.5"
         width="71"
         height="71"
         ry="6"
         style="stroke:#ffffff"
         id="rect62-2" /><path
         d="m 9,56.5 h 12 v -10 h 10 v -10 h 10 v -10 h 10 v -10 h 12"
         style="fill:none;stroke:#ffffff;stroke-width:5"
         id="path63-3-7" /></symbol><clipPath
       clipPathUnits="userSpaceOnUse"
       id="clipPath1"><path
         d="M 0,0 H 3524 V 2559 H 0 Z"
         transform="matrix(2.8376844e-4,0,0,-3.9077765e-4,0,1)"
         id="path1-3" /></clipPath></defs><g
     id="layer1"
     style="display:inline;opacity:1"
     transform="translate(-0.82823822,0.09567162)"><path
       style="display:inline;opacity:0.5;fill:#e3e3e3;fill-opacity:1;stroke:#000000;stroke-width:1.8;stroke-opacity:1"
       d="M 515.55934,103.96757 375.31473,310.77187 360.55441,313.85811 329.28936,358.81 251.57386,308.10731 10.496864,665.85106 217.60858,805.67622 199.65541,829.79454 319.41835,916.22631 542.17061,588.8692 514.15146,567.38785 689.21383,316.61643 l -42.78866,-29.47668 8.65748,-11.72367 -23.08661,-17.13459 c 7.47529,-8.19938 18.05666,-15.95504 31.74409,-23.26698 2.98898,77.57353 136.99232,82.93116 146.84808,0 l 27.0524,23.23305 -22.53368,17.16852 9.37471,11.72367 -41.65276,29.47668 183.9154,275.23372 -18.40112,12.75787 68.17114,98.32563 29.9204,-20.20594 36.4604,54.01774 -33.2024,21.81965 113.3147,163.52531 33.4175,-21.76025 129.7844,192.34504 60.1108,-44.3391 19.5472,26.4646 40.5484,-29.8994 -72.4712,-102.03953 136.8606,-95.62904 -89.1599,-123.74775 42.5999,-30.37673 -61.1869,-88.83618 -44.8705,30.22104 -28.1037,-39.4123 -25.9881,17.55185 -4.35,-5.56649 74.726,-49.38066 L 1204.585,299.98053 1126.0927,356.32402 919.75895,66.83504 880.5128,97.532529 C 742.43475,12.132539 666.21767,57.310485 583.88658,94.12499 l -17.5611,-15.508199 -40.90919,34.150279 z"
       id="path169"
       sodipodi:nodetypes="ccccccccccccccccccccccccccccccccccccccccccccccccccc" /><path
       style="opacity:1;fill:#b5f270;fill-opacity:1;stroke:#000000;stroke-width:1.8;stroke-opacity:1"
       d="m 566.15588,143.08303 c 31.08711,-31.49885 75.76195,-47.968842 75.76195,-47.968842 l 0.41175,125.171922 c -39.73385,24.49911 -60.11546,49.61584 -60.11546,49.61584 l -41.17497,-27.79311 52.25111,-79.95814 z"
       id="path3" /><path
       style="opacity:1;fill:#b5f270;fill-opacity:1;stroke:#000000;stroke-width:1.8;stroke-opacity:1"
       d="m 881.20975,270.69044 c -36.64582,-45.44081 -58.63331,-49.10539 -58.63331,-49.10539 l -0.0865,-124.571434 73.86677,48.836744 -27.60652,18.81152 52.52567,76.4676 z"
       id="path4" /><path
       style="opacity:1;fill:#e3e3e3;fill-opacity:1;stroke:#000000;stroke-width:1.8;stroke-opacity:1"
       d="m 897.08962,295.6096 42.82763,-28.86829 72.48455,107.53464 -8.5507,6.10764 22.2318,31.02679 38.356,-28.33943 67.0067,94.58845 -53.1611,37.10189 -15.1034,10.22729 -12.179,-17.56615 -16.8571,-24.18624 -8.0621,5.37472 z"
       id="path5"
       sodipodi:nodetypes="ccccccccccccc" /><path
       style="opacity:1;fill:#abf5f6;fill-opacity:1;stroke:#000000;stroke-width:1.56669;stroke-opacity:1"
       d="m 1107.3206,380.77481 54.676,80.76501 53.5345,79.87148 48.4689,72.31366 90.0585,-63.04095 c -15.9058,-23.37978 -31.6925,-46.83914 -47.4206,-70.33783 -17.8274,-26.63536 -35.5794,-53.32126 -53.344,-79.99911 l -55.3254,-80.93887 z"
       id="path17" /><path
       style="opacity:1;fill:#abf5f6;fill-opacity:1;stroke:#000000;stroke-width:1.8;stroke-opacity:1"
       d="m 1160.1412,458.79914 91.2973,-61.19277"
       id="path18" /><path
       style="opacity:1;fill:#abf5f6;fill-opacity:1;stroke:#000000;stroke-width:1.8;stroke-opacity:1"
       d="m 1215.5311,541.41133 91.553,-61.36419"
       id="path19" /><path
       style="opacity:1;fill:#abf5f6;fill-opacity:1;stroke:#000000;stroke-width:1.649;stroke-dasharray:none;stroke-opacity:1"
       d="m 948.34316,604.60802 55.04494,79.39322 98.7433,-68.46074 -55.0449,-79.39322 z"
       id="path21"
       sodipodi:nodetypes="ccccc" /><path
       style="display:inline;fill:#abf5f6;fill-opacity:1;stroke:#000000;stroke-width:1.79086;stroke-dasharray:none;stroke-opacity:1"
       d="m 1049.6927,758.5651 55.1973,79.6557 103.3614,-71.62415 -55.762,-78.89609 z"
       id="path21-7"
       sodipodi:nodetypes="ccccc" /><path
       style="opacity:1;fill:#abf5f6;fill-opacity:1;stroke:#000000;stroke-width:1.8;stroke-opacity:1"
       d="M 200.90171,784.8276 Z"
       id="path35" /><path
       style="opacity:1;fill:#abf5f6;fill-opacity:1;stroke:#000000;stroke-width:1.8;stroke-opacity:1"
       d="M 111.80783,659.96271 Z"
       id="path52" /><path
       style="opacity:1;fill:#e3e3e3;fill-opacity:1;stroke:#000000;stroke-width:1.8;stroke-opacity:1"
       d="M 395.6759,344.14901 539.59113,130.97453 514.71403,114.17986 370.79877,327.35433 Z"
       id="path55" /><path
       style="opacity:1;fill:#e3e3e3;fill-opacity:1;stroke:#000000;stroke-width:1.8;stroke-opacity:1"
       d="M 395.6759,344.14901 370.79877,327.35433"
       id="path56" /><path
       style="opacity:1;fill:#e3e3e3;fill-opacity:1;stroke:#000000;stroke-width:1.8;stroke-opacity:1"
       d="m 539.59113,130.97453 -24.8771,-16.79467"
       id="path57" /><path
       style="opacity:1;fill:#e3e3e3;fill-opacity:1;stroke:#000000;stroke-width:1.8;stroke-opacity:1"
       d="M 410.78754,321.76489 385.91041,304.97021"
       id="path58" /><path
       style="opacity:1;fill:#e3e3e3;fill-opacity:1;stroke:#000000;stroke-width:1.8;stroke-opacity:1"
       d="M 423.68554,302.65972 398.80842,285.86504"
       id="path59" /><path
       style="opacity:1;fill:#e3e3e3;fill-opacity:1;stroke:#000000;stroke-width:1.8;stroke-opacity:1"
       d="M 439.75406,278.85822 414.87694,262.06355"
       id="path60" /><path
       style="opacity:1;fill:#e3e3e3;fill-opacity:1;stroke:#000000;stroke-width:1.8;stroke-opacity:1"
       d="M 458.14095,251.62264 433.26383,234.82796"
       id="path61" /><path
       style="opacity:1;fill:#e3e3e3;fill-opacity:1;stroke:#000000;stroke-width:1.8;stroke-opacity:1"
       d="M 478.38813,221.6315 453.51101,204.83682"
       id="path62" /><path
       style="opacity:1;fill:#e3e3e3;fill-opacity:1;stroke:#000000;stroke-width:1.8;stroke-opacity:1"
       d="m 498.87801,191.28085 -24.8771,-16.79468"
       id="path63" /><path
       style="opacity:1;fill:#e3e3e3;fill-opacity:1;stroke:#000000;stroke-width:1.8;stroke-opacity:1"
       d="M 519.1252,161.2897 494.24809,144.49503"
       id="path64" /><path
       style="opacity:1;fill:#e3e3e3;fill-opacity:1;stroke:#000000;stroke-width:1.8;stroke-opacity:1"
       d="m 495.46818,240.23507 26.67666,17.88724 -65.51646,97.70988 -27.20171,-18.48254 z"
       id="path65" /><path
       style="opacity:1;fill:#e3e3e3;fill-opacity:1;stroke:#000000;stroke-width:1.8;stroke-opacity:1"
       d="M 456.62838,355.83219 429.42667,337.34965"
       id="path66" /><path
       style="opacity:1;fill:#e3e3e3;fill-opacity:1;stroke:#000000;stroke-width:1.8;stroke-opacity:1"
       d="M 469.91844,336.01167 442.83799,317.61152"
       id="path67" /><path
       style="opacity:1;fill:#e3e3e3;fill-opacity:1;stroke:#000000;stroke-width:1.8;stroke-opacity:1"
       d="M 484.33884,314.50538 457.38996,296.19463"
       id="path68" /><path
       style="opacity:1;fill:#e3e3e3;fill-opacity:1;stroke:#000000;stroke-width:1.8;stroke-opacity:1"
       d="M 504.00884,285.16995 477.23943,266.98114"
       id="path69" /><path
       style="opacity:1;fill:#e3e3e3;fill-opacity:1;stroke:#000000;stroke-width:1.8;stroke-opacity:1"
       d="m 509.32448,219.35446 50.13328,-73.73568 26.00327,17.78289 -50.37953,73.58676 z"
       id="path70" /><path
       style="opacity:1;fill:#e3e3e3;fill-opacity:1;stroke:#000000;stroke-width:1.8;stroke-opacity:1"
       d="M 585.46103,163.40167 559.45776,145.61878"
       id="path72" /><path
       style="opacity:1;fill:#e3e3e3;fill-opacity:1;stroke:#000000;stroke-width:1.8;stroke-opacity:1"
       d="M 548.95988,216.717 522.9566,198.93411"
       id="path73" /><path
       style="opacity:1;fill:#e3e3e3;fill-opacity:1;stroke:#000000;stroke-width:1.8;stroke-opacity:1"
       d="M 566.7445,190.73993 540.74122,172.95704"
       id="path74" /><path
       style="opacity:1;fill:#e3e3e3;fill-opacity:1;stroke:#000000;stroke-width:1.8;stroke-opacity:1"
       d="M 476.7062,523.27988 Z"
       id="path86" /><path
       style="opacity:1;fill:#e3e3e3;fill-opacity:1;stroke:#000000;stroke-width:1.8;stroke-opacity:1"
       d="m 879.21462,166.19655 23.66917,-15.77945 52.17825,74.74176 -25.00058,17.45324 z"
       id="path127" /><path
       style="opacity:1;fill:#e3e3e3;fill-opacity:1;stroke:#000000;stroke-width:1.8;stroke-opacity:1"
       d="m 898.49988,195.17954 23.9573,-16.72491"
       id="path128" /><path
       style="opacity:1;fill:#e3e3e3;fill-opacity:1;stroke:#000000;stroke-width:1.8;stroke-opacity:1"
       d="m 914.34792,218.9969 24.48116,-17.09063"
       id="path129" /><path
       style="opacity:1;fill:#e3e3e3;fill-opacity:1;stroke:#000000;stroke-width:1.8;stroke-opacity:1"
       d="m 938.58362,255.26003 25.31604,-17.8867 84.57104,118.46708 -28.2197,20.14538 z"
       id="path131" /><path
       style="opacity:1;fill:#e3e3e3;fill-opacity:1;stroke:#000000;stroke-width:1.8;stroke-opacity:1"
       d="m 1006.467,355.60936 27.9884,-19.40159"
       id="path132" /><path
       style="opacity:1;fill:#e3e3e3;fill-opacity:1;stroke:#000000;stroke-width:1.8;stroke-opacity:1"
       d="m 992.91027,335.56903 27.48693,-19.05394"
       id="path133" /><path
       style="opacity:1;fill:#e3e3e3;fill-opacity:1;stroke:#000000;stroke-width:1.8;stroke-opacity:1"
       d="M 979.41731,315.62291 1006.1867,296.609"
       id="path134" /><path
       style="opacity:1;fill:#e3e3e3;fill-opacity:1;stroke:#000000;stroke-width:1.8;stroke-opacity:1"
       d="m 958.31113,284.42245 26.20705,-18.16671"
       id="path135" /><path
       style="opacity:1;fill:#e3e3e3;fill-opacity:1;stroke:#000000;stroke-width:1.8;stroke-opacity:1"
       d="m 922.0506,133.92264 24.05675,-17.31187 20.54834,29.40645 20.637,29.53332 21.35411,30.55958 20.6245,29.5154 17.9943,25.75145 14.9323,21.36937 -23.4101,18.23289 -15.8763,-22.58428 -17.9944,-25.7515 -20.62443,-29.51537 -21.35413,-30.55959 -20.42894,-30.21582 z"
       id="path136" /><path
       style="opacity:1;fill:#e3e3e3;fill-opacity:1;stroke:#000000;stroke-width:1.8;stroke-opacity:1"
       d="m 1059.7997,284.67584 -18.8016,14.58192 15.3508,20.83261 16.6764,-12.48739 7.8199,-5.79524 -16.0987,-21.03739 z"
       id="path137" /><path
       style="opacity:1;fill:#e3e3e3;fill-opacity:1;stroke:#000000;stroke-width:1.8;stroke-opacity:1"
       d="m 1074.3086,306.76751 15.1892,20.49581 -20.8741,14.40274 -14.6703,-19.59574 2.3955,-1.97995 z"
       id="path138" /><path
       style="opacity:1;fill:#e3e3e3;fill-opacity:1;stroke:#000000;stroke-width:1.8;stroke-opacity:1"
       d="m 1089.0568,326.66822 4.8977,-3.63641 14.8429,20.03103 -20.7118,15.8951 -15.4443,-20.12441 z"
       id="path139" /><path
       style="opacity:1;fill:#e3e3e3;fill-opacity:1;stroke:#000000;stroke-width:1.8;stroke-opacity:1"
       d="m 942.5096,162.35267 23.69336,-16.0191"
       id="path140" /><path
       style="opacity:1;fill:#e3e3e3;fill-opacity:1;stroke:#000000;stroke-width:1.8;stroke-opacity:1"
       d="M 962.93854,192.56849 987.2927,175.55054"
       id="path141" /><path
       style="opacity:1;fill:#e3e3e3;fill-opacity:1;stroke:#000000;stroke-width:1.8;stroke-opacity:1"
       d="m 984.29267,223.12808 24.35413,-17.01795"
       id="path142" /><path
       style="opacity:1;fill:#e3e3e3;fill-opacity:1;stroke:#000000;stroke-width:1.8;stroke-opacity:1"
       d="m 1004.9171,252.64347 24.3542,-17.01796"
       id="path143" /><path
       style="opacity:1;fill:#e3e3e3;fill-opacity:1;stroke:#000000;stroke-width:1.8;stroke-opacity:1"
       d="m 1022.9115,278.39494 24.3541,-17.01795"
       id="path144" /><path
       style="opacity:1;fill:#e3e3e3;fill-opacity:1;stroke:#000000;stroke-width:1.56816;stroke-opacity:1"
       d="m 1053.9289,677.50559 14.0112,-10.84743 7.7814,10.24479 16.4042,-11.69852 -8.6678,-11.95488 15.6686,-10.84742 21.9539,31.10042 -46.9633,32.62817 z"
       id="path147" /><path
       style="opacity:1;fill:#e3e3e3;fill-opacity:1;stroke:#000000;stroke-width:1.56816;stroke-opacity:1"
       d="m 1099.1265,642.40213 21.7201,31.2654 14.3479,-10.1282 -25.3713,-35.29912 -14.1433,9.98847 z"
       id="path148" /><path
       style="opacity:1;fill:#e3e3e3;fill-opacity:1;stroke:#000000;stroke-width:1.54497;stroke-opacity:1"
       d="m 1290.4801,633.8418 18.3549,25.79726 9.6602,-6.87333 -6.8183,-9.82034 18.9047,-12.96379 8.566,12.27997 11.4168,-8.14534 -19.5986,-27.68217 -48.6046,32.90402 19.6807,29.07149 8.6715,-6.1304 z"
       id="path160" /><path
       style="opacity:1;fill:#e3e3e3;fill-opacity:1;stroke:#000000;stroke-width:1.8;stroke-opacity:1"
       d="m 1321.1293,636.4635 -10.8491,-16.02583"
       id="path162" /><path
       style="opacity:1;fill:#abf5f6;fill-opacity:1;stroke:#000000;stroke-width:1.8;stroke-opacity:1"
       d="m 644.75037,51.768069 0.98691,169.429591 c 16.64365,-5.64767 20.80939,-11.35725 52.98261,-16.69428 v 5.68065 h 66.73368 v -6.16315 c 20.5051,4.67995 37.96353,10.69282 52.37529,18.03861 l 0.67345,-170.516998 -52.05244,-5.213453 0.24267,-11.028892 c -23.48953,-8.878011 -46.97905,-8.922475 -70.46858,-0.133391 l -0.44765,10.739523 z"
       id="path168"
       sodipodi:nodetypes="ccccccccccccc" /><g
       id="layer2"
       style="display:inline"><use
         xlink:href="#AigaSymbols.svg:Stairs_Inv"
         style="display:inline;fill:#000000;stroke:#010d00;stroke-opacity:1"
         id="stair_2"
         transform="matrix(0.21422336,0,0,0.21422263,431.15423,353.83753)"><title
           id="title173">stair_2</title></use><use
         xlink:href="#AigaSymbols.svg:Stairs_Inv"
         style="display:inline;fill:#000000;stroke:#010d00;stroke-opacity:1"
         id="stair_6"
         transform="matrix(0.21422336,0,0,0.21422263,829.72666,268.36704)"><title
           id="title173-57">stair_6</title></use><use
         xlink:href="#AigaSymbols.svg:Stairs_Inv"
         style="display:inline;fill:#000000;stroke:#010d00;stroke-opacity:1"
         id="stair_11"
         transform="matrix(0.21416637,0,0,0.2226127,1269.063,614.59396)"><title
           id="title173-3">stair_2</title></use><use
         xlink:href="#AigaSymbols.svg:Stairs_Inv"
         style="display:inline;fill:#000000;stroke:#010d00;stroke-opacity:1"
         id="stair_8"
         transform="matrix(0.2142218,0,0,0.21422265,1038.5251,366.98848)"><title
           id="title173-0">stair_8</title></use><use
         xlink:href="#AigaSymbols.svg:Stairs_Inv"
         style="display:inline;fill:#000000;stroke:#010d00;stroke-opacity:1"
         id="stair_7"
         transform="matrix(0.21422336,0,0,0.21422263,904.6117,95.435223)"><title
           id="title173-1">stair_7</title></use><use
         xlink:href="#AigaSymbols.svg:Stairs_Inv"
         style="display:inline;fill:#000000;stroke:#010d00;stroke-opacity:1"
         id="stair_1"
         transform="matrix(0.21422403,0,0,0.21422056,623.15421,266.52055)"><title
           id="title172">stair_1</title></use><use
         xlink:href="#AigaSymbols.svg:Stairs_Inv"
         style="display:inline;fill:#000000;stroke:#010d00;stroke-opacity:1"
         id="stair_14"
         transform="matrix(0.21422336,0,0,0.21422263,546.77339,99.163193)"><title
           id="title173-5">stair_14</title></use><use
         xlink:href="#AigaSymbols.svg:Stairs_Inv"
         style="display:inline;fill:#000000;stroke:#010d00;stroke-opacity:1"
         id="stair_10"
         transform="matrix(0.21422336,0,0,0.21422263,1129.9181,670.1881)"><title
           id="title173-9">stair_10</title></use></g><path
       style="fill:#b5f270;fill-opacity:1;stroke:#000000;stroke-width:1.649"
       d="m 1147.6339,504.9443 -50.978,34.43248 254.9846,377.50963 55.0839,-37.20578 z"
       id="path51" /><path
       style="opacity:1;fill:#e3e3e3;fill-opacity:1;stroke:#000000;stroke-width:1.649"
       d="M 447.03603,384.0778 354.24636,322.92762"
       id="path9"
       sodipodi:nodetypes="cc" /><path
       style="opacity:1;fill:#e3e3e3;fill-opacity:1;stroke:#000000;stroke-width:1.649"
       d="M 541.03915,242.10884 447.03603,384.0778"
       id="path12"
       sodipodi:nodetypes="cc" /><path
       style="opacity:1;fill:#e3e3e3;fill-opacity:1;stroke:#000000;stroke-width:1.649"
       d="m 582.21412,269.90195 51.26254,35.78614"
       id="path14"
       sodipodi:nodetypes="cc" /><path
       style="opacity:1;fill:#e3e3e3;fill-opacity:1;stroke:#000000;stroke-width:1.649"
       d="m 646.42517,287.13975 -12.94851,18.54834"
       id="path15" /><path
       style="opacity:1;fill:#e3e3e3;fill-opacity:1;stroke:#000000;stroke-width:1.649"
       d="M 1131.4456,477.6594 948.34316,604.60802"
       id="path16" /><path
       style="opacity:1;fill:#e3e3e3;fill-opacity:1;stroke:#000000;stroke-width:1.649"
       d="m 881.20975,270.69044 16.51045,24.49412 42.19705,-28.44325 -18.8066,-25.48994 z"
       id="path20" /><path
       style="opacity:1;fill:#e3e3e3;fill-opacity:1;stroke:#000000;stroke-width:1.649"
       d="m 1104.8947,838.21749 140.8163,-96.98875 114.662,169.75938 37.5008,-25.3295 -116.4293,-169.04172 134.9658,-92.95915 47.8348,69.4505 -42.5999,30.37673 89.1599,123.74775 -136.1278,96.66081 71.7384,101.00776 -40.5484,29.8994 -19.5472,-26.4646 -60.1108,44.3391 -129.7844,-192.34504 -33.4175,21.76025 z"
       id="path27"
       sodipodi:nodetypes="ccccccccccccccccc" /><path
       style="fill:#e3e3e3;fill-opacity:1;stroke:#000000;stroke-width:1.649"
       d="m 818.16559,136.80099 -172.92176,-0.31812 v 0 l 0.49345,84.71479 c 16.04008,-5.68421 23.33414,-12.01296 52.98261,-16.69428 v 5.68065 h 66.73368 v -6.16315 c 20.5246,4.68667 37.98303,10.69954 52.37529,18.03861 z"
       id="path1"
       sodipodi:nodetypes="cccccccccc" /></g></svg>
